<?xml version="1.0" standalone="no"?>
<!DOCTYPE svg PUBLIC "-//W3C//DTD SVG 20010904//EN"
 "http://www.w3.org/TR/2001/REC-SVG-20010904/DTD/svg10.dtd">
<svg version="1.0" xmlns="http://www.w3.org/2000/svg"
 width="612.000000pt" height="612.000000pt" viewBox="0 0 612.000000 612.000000"
 preserveAspectRatio="xMidYMid meet">
<metadata>
Created by potrace 1.11, written by Peter Selinger 2001-2013
</metadata>
<g transform="translate(0.000000,612.000000) scale(0.100000,-0.100000)"
fill="#000000" stroke="none">
<path d="M2789 6056 c-2 -2 -41 -7 -86 -10 -46 -4 -91 -9 -100 -10 -10 -2 -40
-7 -67 -10 -165 -23 -499 -112 -627 -169 -19 -8 -59 -25 -89 -37 -78 -31 -260
-124 -349 -177 -346 -207 -657 -488 -883 -796 -20 -29 -41 -56 -45 -62 -15
-18 -100 -149 -119 -184 -69 -123 -87 -156 -127 -237 -84 -170 -177 -430 -217
-609 -7 -27 -14 -59 -16 -70 -12 -49 -44 -256 -51 -324 -15 -150 -8 -598 11
-696 2 -11 7 -42 10 -70 6 -42 20 -113 51 -259 10 -44 60 -205 90 -290 193
-540 544 -1019 1005 -1373 330 -253 763 -456 1150 -539 116 -25 163 -34 206
-39 27 -4 60 -8 74 -11 74 -13 198 -19 395 -19 216 0 294 5 425 24 36 6 83 13
105 16 22 3 48 8 57 11 9 3 25 6 35 8 367 73 780 255 1113 490 172 122 403
333 539 491 141 165 300 403 395 591 63 126 137 294 129 294 -3 0 -1 6 4 13
17 21 101 290 119 382 2 11 10 54 19 95 22 111 30 166 45 307 8 80 6 551 -3
589 -3 11 -8 45 -11 75 -3 30 -8 65 -11 79 -3 14 -7 39 -10 55 -74 437 -267
887 -536 1252 -108 146 -158 204 -304 348 -140 139 -170 166 -275 247 -448
344 -937 541 -1520 615 -43 5 -526 13 -531 9z"/>
</g>
</svg>
